<?xml version="1.0" standalone="no"?>
<!DOCTYPE svg PUBLIC "-//W3C//DTD SVG 20010904//EN"
 "http://www.w3.org/TR/2001/REC-SVG-20010904/DTD/svg10.dtd">
<svg version="1.0" xmlns="http://www.w3.org/2000/svg"
 width="136.000000pt" height="146.000000pt" viewBox="0 0 136.000000 146.000000"
 preserveAspectRatio="xMidYMid meet">
<metadata>
Created by potrace 1.10, written by Peter Selinger 2001-2011
</metadata>
<g transform="translate(0.000000,146.000000) scale(0.100000,-0.100000)"
fill="#000000" stroke="none">
<path d="M618 1309 c-25 -14 -24 -75 1 -89 29 -15 56 -12 74 8 46 50 -16 116
-75 81z"/>
<path d="M444 1275 c-10 -38 2 -68 45 -116 l40 -44 1 51 c0 67 -15 109 -46
123 -33 15 -33 15 -40 -14z"/>
<path d="M820 1287 c-29 -15 -49 -64 -49 -124 -1 -54 17 -49 61 15 48 69 40
135 -12 109z"/>
<path d="M554 1171 c1 -61 4 -71 21 -75 41 -11 43 -8 33 36 -7 35 -43 108 -52
108 -1 0 -2 -31 -2 -69z"/>
<path d="M736 1221 c-30 -33 -59 -131 -38 -131 4 0 18 3 31 7 20 5 22 11 18
38 -3 18 -2 49 3 69 9 42 9 42 -14 17z"/>
<path d="M857 1171 c-9 -16 -31 -41 -47 -55 -27 -22 -29 -27 -18 -50 14 -32
22 -32 43 -3 16 23 50 126 43 132 -2 3 -12 -9 -21 -24z"/>
<path d="M293 1164 c-15 -24 -15 -29 -2 -53 11 -20 22 -26 49 -26 27 0 38 6
49 26 13 24 13 29 -2 53 -12 18 -26 26 -47 26 -21 0 -35 -8 -47 -26z"/>
<path d="M430 1169 c0 -29 47 -129 61 -129 5 0 15 12 21 26 11 22 9 28 -15 47
-15 12 -36 36 -47 52 l-20 30 0 -26z"/>
<path d="M926 1174 c-33 -33 -7 -94 41 -94 25 0 53 30 53 57 0 44 -63 69 -94
37z"/>
<path d="M528 1050 l-17 -31 32 -19 c47 -29 50 -28 61 26 7 29 4 33 -25 43
-18 6 -32 11 -33 11 -1 0 -9 -14 -18 -30z"/>
<path d="M717 1068 c-19 -7 -26 -15 -23 -25 4 -8 9 -26 12 -39 3 -13 8 -24 11
-24 4 0 65 30 71 35 6 5 -28 65 -36 64 -4 0 -20 -5 -35 -11z"/>
<path d="M628 1015 l-15 -45 39 0 c34 0 39 3 33 18 -4 9 -10 29 -13 45 -7 41
-28 33 -44 -18z"/>
<path d="M317 1022 c23 -17 47 -41 53 -52 10 -19 13 -19 40 -5 17 9 30 17 30
20 0 11 -89 54 -125 60 l-40 7 42 -30z"/>
<path d="M960 1038 c-38 -11 -90 -44 -90 -58 0 -6 12 -13 26 -16 20 -5 31 -1
52 22 15 16 38 37 52 46 28 19 14 22 -40 6z"/>
<path d="M198 1033 c-43 -11 -5 -66 56 -82 54 -13 96 -14 96 -2 0 13 -68 71
-97 82 -25 9 -27 10 -55 2z"/>
<path d="M1030 1019 c-43 -26 -80 -59 -80 -72 0 -13 96 -3 131 13 15 7 32 23
38 36 10 22 8 26 -15 34 -34 13 -34 13 -74 -11z"/>
<path d="M485 991 c-8 -13 26 -81 40 -81 18 0 48 37 40 49 -3 6 -12 11 -19 11
-8 0 -19 7 -26 15 -14 17 -26 19 -35 6z"/>
<path d="M768 975 l-38 -21 30 -29 29 -28 6 26 c4 15 13 31 21 38 38 31 0 42
-48 14z"/>
<path d="M422 946 c-20 -9 -22 -16 -17 -46 4 -19 8 -36 9 -38 4 -3 69 19 78
27 9 7 -28 72 -39 70 -5 -1 -18 -7 -31 -13z"/>
<path d="M825 930 c-22 -42 -20 -46 24 -57 38 -10 39 -10 49 24 10 31 8 34
-18 48 -38 20 -37 20 -55 -15z"/>
<path d="M565 910 c-31 -32 -35 -42 -35 -87 0 -45 4 -55 36 -87 32 -32 42 -36
85 -36 44 0 54 4 86 37 33 32 37 42 37 87 0 45 -5 55 -35 86 -30 30 -41 34
-86 35 -48 1 -56 -2 -88 -35z m157 -22 c28 -33 24 -107 -7 -137 -21 -19 -33
-23 -69 -19 -59 7 -86 35 -86 92 0 37 5 48 32 71 27 23 38 26 72 21 21 -4 48
-16 58 -28z"/>
<path d="M250 911 c26 -22 126 -58 135 -49 3 3 1 17 -4 32 -10 24 -15 26 -65
26 -30 0 -63 3 -73 6 -13 4 -11 0 7 -15z"/>
<path d="M993 923 c-58 -4 -62 -5 -72 -35 l-11 -30 37 7 c41 7 108 39 118 55
3 5 3 9 -2 8 -4 -1 -36 -3 -70 -5z"/>
<path d="M182 873 c-7 -3 -18 -16 -23 -30 -23 -62 61 -102 98 -47 15 24 15 29
2 53 -14 25 -48 36 -77 24z"/>
<path d="M1056 864 c-23 -22 -20 -71 3 -84 29 -15 56 -12 74 8 47 52 -28 126
-77 76z"/>
<path d="M453 847 c-44 -13 -42 -34 4 -46 42 -12 56 -4 51 30 -4 27 -13 30
-55 16z"/>
<path d="M800 822 l0 -40 45 17 c51 18 58 36 18 44 -16 3 -36 9 -45 12 -15 6
-18 1 -18 -33z"/>
<path d="M328 776 c-20 -7 -51 -22 -68 -33 l-31 -20 68 1 c57 1 70 4 80 21 27
45 14 53 -49 31z"/>
<path d="M853 776 c-44 -15 -47 -20 -28 -56 12 -23 21 -30 33 -25 9 4 25 10
35 12 20 6 20 7 4 49 -11 30 -13 31 -44 20z"/>
<path d="M922 758 l10 -33 69 0 c69 -1 69 0 47 17 -20 15 -107 48 -129 48 -4
0 -3 -15 3 -32z"/>
<path d="M410 768 c0 -7 -3 -22 -5 -33 -4 -15 2 -24 23 -36 l30 -17 21 39 22
39 -26 10 c-36 14 -65 13 -65 -2z"/>
<path d="M497 703 c-24 -48 -10 -60 37 -32 l37 22 -22 23 c-12 13 -25 24 -28
24 -3 0 -14 -17 -24 -37z"/>
<path d="M751 716 l-22 -23 41 -22 c23 -12 46 -19 51 -16 9 6 -30 85 -42 85
-3 0 -16 -11 -28 -24z"/>
<path d="M270 701 c-49 -10 -78 -27 -85 -52 -14 -44 43 -52 101 -13 87 58 81
84 -16 65z"/>
<path d="M962 702 c-10 -7 -3 -18 28 -45 48 -40 89 -54 119 -37 17 9 19 14 9
35 -15 33 -126 67 -156 47z"/>
<path d="M356 664 c-10 -14 -32 -34 -50 -45 -30 -18 -30 -19 -6 -19 28 0 124
42 134 58 7 12 -23 32 -46 32 -7 0 -21 -12 -32 -26z"/>
<path d="M888 679 c-10 -5 -18 -13 -18 -18 0 -13 73 -49 115 -56 l40 -7 -37
26 c-21 15 -42 35 -48 46 -12 22 -26 25 -52 9z"/>
<path d="M622 648 c6 -18 12 -39 14 -45 6 -24 31 -13 37 15 3 15 9 35 12 45 6
14 1 17 -33 17 l-40 0 10 -32z"/>
<path d="M550 651 c-19 -10 -34 -20 -33 -22 21 -51 28 -60 47 -55 12 3 27 6
34 6 15 0 15 26 -1 63 l-12 27 -35 -19z"/>
<path d="M702 633 c-13 -41 -9 -47 30 -57 23 -5 30 -2 43 24 15 30 15 30 -17
50 -18 11 -36 20 -39 20 -3 0 -11 -17 -17 -37z"/>
<path d="M456 558 c-14 -29 -26 -63 -26 -77 0 -25 0 -25 23 6 13 18 33 40 46
50 20 17 21 21 10 46 -7 15 -16 27 -20 27 -4 0 -19 -23 -33 -52z"/>
<path d="M792 585 c-11 -24 -9 -29 26 -63 20 -20 43 -46 50 -57 21 -34 4 43
-21 94 -27 54 -40 60 -55 26z"/>
<path d="M300 550 c-24 -24 -25 -38 -4 -68 29 -42 104 -17 104 35 0 20 -38 53
-60 53 -11 0 -29 -9 -40 -20z"/>
<path d="M927 552 c-20 -22 -22 -63 -5 -80 20 -20 76 -15 88 7 16 31 12 59
-12 75 -29 21 -51 20 -71 -2z"/>
<path d="M573 550 c-18 -7 -21 -14 -16 -49 3 -22 1 -53 -5 -70 -6 -17 -9 -31
-7 -31 12 0 55 80 63 118 11 45 7 49 -35 32z"/>
<path d="M693 524 c6 -33 55 -130 62 -122 2 2 0 21 -5 42 -4 21 -6 53 -3 71 4
27 2 33 -18 38 -39 11 -42 9 -36 -29z"/>
<path d="M499 503 c-56 -61 -72 -106 -50 -141 6 -10 13 -11 34 -1 32 15 50 65
45 127 l-3 44 -26 -29z"/>
<path d="M770 494 c0 -58 18 -111 43 -129 29 -21 36 -19 47 11 12 31 -12 84
-59 128 l-31 30 0 -40z"/>
<path d="M616 424 c-19 -18 -21 -65 -4 -82 29 -29 98 -1 98 39 0 48 -62 76
-94 43z"/>
<path d="M184 168 c16 -38 36 -48 36 -19 0 12 5 21 10 21 6 0 10 -9 10 -21 0
-29 20 -19 36 19 15 36 3 45 -13 10 l-10 -23 -7 23 c-4 12 -11 22 -16 22 -5 0
-12 -10 -16 -22 l-7 -23 -10 23 c-16 35 -28 26 -13 -10z"/>
<path d="M700 165 c0 -19 5 -35 10 -35 6 0 10 7 10 15 0 8 9 15 20 15 11 0 20
-7 20 -15 0 -8 4 -15 9 -15 5 0 9 16 9 35 0 19 -4 35 -9 35 -5 0 -9 -7 -9 -15
0 -8 -9 -15 -20 -15 -11 0 -20 7 -20 15 0 8 -4 15 -10 15 -5 0 -10 -16 -10
-35z"/>
<path d="M300 160 c0 -26 3 -30 28 -29 l27 1 -25 8 c-15 5 -18 8 -9 9 14 1 29
20 29 37 0 2 -11 4 -25 4 -21 0 -25 -5 -25 -30z"/>
<path d="M376 162 c-14 -28 -14 -28 19 -28 33 0 33 0 19 28 -8 15 -17 28 -19
28 -2 0 -11 -13 -19 -28z"/>
<path d="M440 160 c0 -27 3 -30 33 -29 23 1 26 3 10 6 -16 3 -23 11 -23 29 0
13 -4 24 -10 24 -5 0 -10 -13 -10 -30z"/>
<path d="M512 178 c9 -7 18 -22 21 -33 4 -15 5 -14 6 7 0 14 7 29 14 31 6 3
-3 6 -22 6 -30 1 -32 -1 -19 -11z"/>
<path d="M582 160 c0 -19 2 -29 5 -22 6 14 33 16 33 2 0 -5 5 -10 10 -10 6 0
10 14 10 30 0 17 -4 30 -10 30 -5 0 -10 -7 -10 -15 0 -21 -28 -19 -33 3 -3 9
-5 1 -5 -18z"/>
<path d="M800 160 c0 -26 3 -30 28 -29 l27 1 -25 8 c-15 5 -18 8 -9 9 14 1 29
20 29 37 0 2 -11 4 -25 4 -21 0 -25 -5 -25 -30z"/>
<path d="M876 162 c-14 -28 -14 -28 19 -28 33 0 33 0 19 28 -8 15 -17 28 -19
28 -2 0 -11 -13 -19 -28z"/>
<path d="M940 160 c0 -27 3 -30 33 -29 23 1 26 3 10 6 -16 3 -23 11 -23 29 0
13 -4 24 -10 24 -5 0 -10 -13 -10 -30z"/>
<path d="M1015 176 c11 -8 16 -19 12 -30 -4 -9 -2 -16 3 -16 6 0 10 12 10 26
0 14 4 23 10 19 6 -3 10 -1 10 4 0 6 -14 11 -32 11 -29 0 -30 -1 -13 -14z"/>
<path d="M1082 160 c0 -19 2 -29 5 -22 6 14 33 16 33 2 0 -5 5 -10 10 -10 6 0
10 14 10 30 0 17 -4 30 -10 30 -5 0 -10 -7 -10 -15 0 -21 -28 -19 -33 3 -3 9
-5 1 -5 -18z"/>
</g>
</svg>
